<?xml version="1.0" encoding="UTF-8"?>
<svg width="205px" height="49px" viewBox="0 0 205 49" version="1.1" xmlns="http://www.w3.org/2000/svg" xmlns:xlink="http://www.w3.org/1999/xlink">
    <title>Group 2 no text</title>
    <defs>
        <linearGradient x1="52.367682%" y1="51.2254329%" x2="49.9152884%" y2="50.0264462%" id="linearGradient-1">
            <stop stop-color="#D52C1C" stop-opacity="0" offset="0%"></stop>
            <stop stop-color="#D12C1E" stop-opacity="0.28" offset="28%"></stop>
            <stop stop-color="#C42C23" stop-opacity="0.574" offset="57.35%"></stop>
            <stop stop-color="#AF2B2C" stop-opacity="0.872" offset="87.21%"></stop>
            <stop stop-color="#A42B31" offset="100%"></stop>
        </linearGradient>
        <linearGradient x1="50%" y1="69.0198258%" x2="50%" y2="90.8040616%" id="linearGradient-2">
            <stop stop-color="#EEF4FF" offset="0%"></stop>
            <stop stop-color="#CFE7FD" offset="100%"></stop>
        </linearGradient>
        <linearGradient x1="50%" y1="74.8921672%" x2="50%" y2="112.115487%" id="linearGradient-3">
            <stop stop-color="#8AAADC" stop-opacity="0" offset="0%"></stop>
            <stop stop-color="#8AAADC" offset="100%"></stop>
        </linearGradient>
        <linearGradient x1="26.0136733%" y1="49.9996165%" x2="-4.73061874%" y2="49.9996165%" id="linearGradient-4">
            <stop stop-color="#8AAADC" stop-opacity="0" offset="0%"></stop>
            <stop stop-color="#8AAADC" offset="100%"></stop>
        </linearGradient>
        <linearGradient x1="14.628944%" y1="1.34372435%" x2="77.8205836%" y2="88.319144%" id="linearGradient-5">
            <stop stop-color="#EEF4FF" offset="0%"></stop>
            <stop stop-color="#CFE7FD" offset="100%"></stop>
        </linearGradient>
        <linearGradient x1="6.66741624%" y1="37.4220338%" x2="131.879919%" y2="76.5145865%" id="linearGradient-6">
            <stop stop-color="#EEF4FF" offset="0%"></stop>
            <stop stop-color="#CFE7FD" offset="100%"></stop>
        </linearGradient>
        <linearGradient x1="50.9078479%" y1="53.573346%" x2="150.712413%" y2="160.481361%" id="linearGradient-7">
            <stop stop-color="#EEF4FF" offset="0%"></stop>
            <stop stop-color="#CFE7FD" offset="100%"></stop>
        </linearGradient>
        <linearGradient x1="25.1113328%" y1="19.8622816%" x2="71.383186%" y2="83.5497134%" id="linearGradient-8">
            <stop stop-color="#EEF4FF" offset="0%"></stop>
            <stop stop-color="#CFE7FD" offset="100%"></stop>
        </linearGradient>
        <linearGradient x1="68.0316858%" y1="51.7895149%" x2="27.739244%" y2="10.9917594%" id="linearGradient-9">
            <stop stop-color="#8AAADC" stop-opacity="0" offset="0%"></stop>
            <stop stop-color="#8AAADC" offset="100%"></stop>
        </linearGradient>
        <linearGradient x1="26.370784%" y1="17.2436971%" x2="65.8424513%" y2="73.7534644%" id="linearGradient-10">
            <stop stop-color="#DC4955" offset="0%"></stop>
            <stop stop-color="#C4237C" offset="100%"></stop>
        </linearGradient>
        <linearGradient x1="50.0004902%" y1="10.1220012%" x2="50.0004902%" y2="91.1068679%" id="linearGradient-11">
            <stop stop-color="#8A1958" stop-opacity="0" offset="0%"></stop>
            <stop stop-color="#8A1958" offset="100%"></stop>
        </linearGradient>
    </defs>
    <g id="Page-1" stroke="none" stroke-width="1" fill="none" fill-rule="evenodd">
        <g id="Group-2-no-text" fill-rule="nonzero">
            <g id="eBiblio" transform="translate(89.162109, 10.080000)">
                <path d="M9.75585938,26.4297656 C10.8222656,26.4297656 11.9267578,26.3037891 13.0693359,26.0518359 C14.2119141,25.7998828 15.3984375,25.4219531 16.6289062,24.9180469 L16.6289062,24.9180469 L16.6289062,21.70125 C15.3515625,22.3692188 14.1503906,22.8672656 13.0253906,23.1953906 C11.9003906,23.5235156 10.8222656,23.6875781 9.79101562,23.6875781 C7.75195312,23.6875781 6.17285156,23.1016406 5.05371094,21.9297656 C3.93457031,20.7578906 3.421875,18.8301563 3.515625,16.1465625 L3.515625,16.1465625 L3.515625,16.0410938 L17.5253906,16.0410938 L17.5253906,14.4590625 C17.4316406,12.0567188 16.6611328,10.0059375 15.2138672,8.30671875 C13.7666016,6.6075 11.7890625,5.75789063 9.28125,5.75789063 C6.46875,5.75789063 4.21875,6.69539063 2.53125,8.57039063 C0.84375,10.4453906 0,12.9532031 0,16.0938281 C0,19.3164844 0.861328125,21.8448047 2.58398438,23.6787891 C4.30664062,25.5127734 6.69726562,26.4297656 9.75585938,26.4297656 Z M3.63867188,13.5274219 C3.73242188,12.2383594 4.28320312,11.0782031 5.29101562,10.0469531 C6.29882812,9.01570313 7.58203125,8.50007813 9.140625,8.50007813 C10.734375,8.50007813 11.9560547,8.99519531 12.8056641,9.98542969 C13.6552734,10.9756641 14.1503906,12.1504688 14.2910156,13.5098438 L14.2910156,13.5098438 L3.63867188,13.5274219 Z" id="e" fill="#FF9D3B"></path>
                <path d="M32.4208687,25.92 C35.0608687,25.92 37.1008687,25.272 38.5408687,23.976 C39.9808687,22.68 40.7008687,21.036 40.7008687,19.044 C40.7008687,17.532 40.2328687,16.206 39.2968687,15.066 C38.3608687,13.926 37.1728687,13.212 35.7328687,12.924 C36.9568687,12.588 37.9948687,11.946 38.8468687,10.998 C39.6988687,10.05 40.1248687,8.784 40.1248687,7.2 C40.1248687,5.304 39.4348687,3.75 38.0548687,2.538 C36.6748687,1.326 34.6768687,0.72 32.0608687,0.72 L32.0608687,0.72 L21.9448687,0.72 L21.9448687,25.92 L32.4208687,25.92 Z M31.3768687,11.304 L26.5528687,11.304 L26.5528687,4.428 L31.3048687,4.428 C32.6728687,4.428 33.6988687,4.734 34.3828687,5.346 C35.0668687,5.958 35.4088687,6.792 35.4088687,7.848 C35.4088687,8.952 35.0608687,9.804 34.3648687,10.404 C33.6688687,11.004 32.6728687,11.304 31.3768687,11.304 L31.3768687,11.304 Z M31.7008687,22.176 L26.5528687,22.176 L26.5528687,14.76 L31.6288687,14.76 C32.9728687,14.76 34.0408687,15.096 34.8328687,15.768 C35.6248687,16.44 36.0208687,17.364 36.0208687,18.54 C36.0208687,19.692 35.6428687,20.586 34.8868687,21.222 C34.1308687,21.858 33.0688687,22.176 31.7008687,22.176 L31.7008687,22.176 Z M47.0220187,5.292 C47.8620187,5.292 48.5520187,5.04 49.0920187,4.536 C49.6320187,4.032 49.9020187,3.396 49.9020187,2.628 C49.9020187,1.86 49.6320187,1.23 49.0920187,0.738 C48.5520187,0.246 47.8620187,1.58095759e-13 47.0220187,1.58095759e-13 C46.1820187,1.58095759e-13 45.4920187,0.246 44.9520187,0.738 C44.4120187,1.23 44.1420187,1.86 44.1420187,2.628 C44.1420187,3.396 44.4120187,4.032 44.9520187,4.536 C45.4920187,5.04 46.1820187,5.292 47.0220187,5.292 Z M49.3260187,25.92 L49.3260187,8.064 L44.7180187,8.064 L44.7180187,25.92 L49.3260187,25.92 Z M64.7191687,26.352 C66.3991687,26.352 67.8991687,25.95 69.2191687,25.146 C70.5391687,24.342 71.5831687,23.238 72.3511687,21.834 C73.1191687,20.43 73.5031687,18.828 73.5031687,17.028 C73.5031687,15.228 73.1191687,13.62 72.3511687,12.204 C71.5831687,10.788 70.5391687,9.672 69.2191687,8.856 C67.8991687,8.04 66.3991687,7.632 64.7191687,7.632 C63.2071687,7.632 61.9771687,7.932 61.0291687,8.532 C60.0811687,9.132 59.3191687,9.828 58.7431687,10.62 L58.7431687,10.62 L58.7431687,1.58095759e-13 L54.1351687,1.58095759e-13 L54.1351687,25.92 L58.2391687,25.92 L58.7431687,23.472 C59.3671687,24.384 60.1831687,25.092 61.1911687,25.596 C62.1991687,26.1 63.3751687,26.352 64.7191687,26.352 Z M63.7471687,22.32 C62.2591687,22.32 61.0411687,21.822 60.0931687,20.826 C59.1451687,19.83 58.6711687,18.552 58.6711687,16.992 C58.6711687,15.432 59.1451687,14.154 60.0931687,13.158 C61.0411687,12.162 62.2591687,11.664 63.7471687,11.664 C65.2111687,11.664 66.4231687,12.168 67.3831687,13.176 C68.3431687,14.184 68.8231687,15.468 68.8231687,17.028 C68.8231687,18.588 68.3431687,19.86 67.3831687,20.844 C66.4231687,21.828 65.2111687,22.32 63.7471687,22.32 Z M82.2003187,25.92 L82.2003187,1.58095759e-13 L77.5923187,1.58095759e-13 L77.5923187,25.92 L82.2003187,25.92 Z M89.3854687,5.292 C90.2254687,5.292 90.9154687,5.04 91.4554687,4.536 C91.9954687,4.032 92.2654687,3.396 92.2654687,2.628 C92.2654687,1.86 91.9954687,1.23 91.4554687,0.738 C90.9154687,0.246 90.2254687,1.58095759e-13 89.3854687,1.58095759e-13 C88.5454687,1.58095759e-13 87.8554687,0.246 87.3154687,0.738 C86.7754687,1.23 86.5054687,1.86 86.5054687,2.628 C86.5054687,3.396 86.7754687,4.032 87.3154687,4.536 C87.8554687,5.04 88.5454687,5.292 89.3854687,5.292 Z M91.6894687,25.92 L91.6894687,8.064 L87.0814687,8.064 L87.0814687,25.92 L91.6894687,25.92 Z M105.066619,26.352 C106.770619,26.352 108.318619,25.956 109.710619,25.164 C111.102619,24.372 112.200619,23.274 113.004619,21.87 C113.808619,20.466 114.210619,18.84 114.210619,16.992 C114.210619,15.144 113.808619,13.518 113.004619,12.114 C112.200619,10.71 111.108619,9.612 109.728619,8.82 C108.348619,8.028 106.806619,7.632 105.102619,7.632 C103.374619,7.632 101.820619,8.028 100.440619,8.82 C99.0606187,9.612 97.9626187,10.71 97.1466187,12.114 C96.3306187,13.518 95.9226187,15.144 95.9226187,16.992 C95.9226187,18.84 96.3246187,20.466 97.1286187,21.87 C97.9326187,23.274 99.0246187,24.372 100.404619,25.164 C101.784619,25.956 103.338619,26.352 105.066619,26.352 Z M105.066619,22.356 C103.866619,22.356 102.828619,21.906 101.952619,21.006 C101.076619,20.106 100.638619,18.768 100.638619,16.992 C100.638619,15.216 101.076619,13.878 101.952619,12.978 C102.828619,12.078 103.878619,11.628 105.102619,11.628 C106.278619,11.628 107.310619,12.078 108.198619,12.978 C109.086619,13.878 109.530619,15.216 109.530619,16.992 C109.530619,18.768 109.086619,20.106 108.198619,21.006 C107.310619,21.906 106.266619,22.356 105.066619,22.356 Z" id="Biblio" fill="#223046"></path>
            </g>
            <g id="books">
                <path d="M59.942451,5.18991967 C50.3967608,2.04338542 40.4900118,2.28752644 31,5.92293877 C21.503302,2.28502304 11.5887725,2.04290858 2.03627451,5.19695303 C0.81754902,5.59928503 0,6.72450332 0,7.98550121 L0,44.6202437 C0,46.5889882 1.92467451,48.0109189 3.85311765,47.4632706 C10.9518745,45.4476767 18.2218,45.2925851 25.3470588,46.9945389 C25.3470588,48.1022334 26.2627137,49 27.3920863,49 L34.6077922,49 C35.7372863,49 36.6528196,48.1021142 36.6528196,46.9946581 C43.7783216,45.2925851 51.0482471,45.4475575 58.1468824,47.4631514 C60.0754471,48.0109189 62,46.5891075 62,44.6203629 L62,7.98550121 C62,6.71651629 61.1692,5.59427823 59.942451,5.18991967 Z" id="Path" fill="#FF9D3B"></path>
                <path d="M62,7.48171037 L62,44.269083 C62,44.9238628 61.7864448,45.5175937 61.4292922,46 C61.066003,45.5056233 60.5456157,45.1201771 59.9233602,44.9166806 C58.6567571,44.5011887 57.3840175,44.1448305 56.1069821,43.8473665 C54.2836629,43.4226574 53,41.830118 53,40.0018819 L53,3 C55.3208782,3.3650966 57.6331651,3.92411336 59.9233602,4.6746562 C61.1617346,5.08164913 62,6.20806191 62,7.48171037 L62,7.48171037 Z" id="Path" fill="url(#linearGradient-1)"></path>
                <path d="M0,44.5386247 C0,46.5440033 1.92467451,47.9923929 3.85311765,47.434554 C10.9518745,45.3814544 18.2218,45.223477 25.3470588,46.9571003 C25.3470588,48.0854065 26.2627137,49 27.3922078,49 L34.6079137,49 C35.7374078,49 36.6530627,48.0854065 36.6530627,46.9572217 C43.7785647,45.223477 51.0484902,45.381333 58.1471255,47.4344326 C60.0754471,47.9922715 62,46.5440033 62,44.5386247 L62,32 L0,32 L0,44.5386247 Z" id="Path"></path>
                <path d="M58.0477506,46.8837865 C60.0258705,47.4216023 62,46.0250141 62,44.0911957 L62,32 L36,32 L36,46.4233702 C43.3090552,44.7516096 50.7662542,44.9038327 58.0477506,46.8837865 L58.0477506,46.8837865 Z" id="Path"></path>
                <path d="M3.9522494,46.8837865 C1.9741295,47.4216023 0,46.0250141 0,44.0911957 L0,32 L26,32 L26,46.4233702 C18.6909448,44.7516096 11.2337458,44.9038327 3.9522494,46.8837865 L3.9522494,46.8837865 Z" id="Path"></path>
                <g id="Group" transform="translate(3.000000, 4.000000)">
                    <path d="M55.0391312,2.04355892 C46.2825862,-0.823879295 37.194805,-0.601383051 28.4894922,2.71152409 C19.7779435,-0.603646128 10.6831928,-0.824355733 1.92028959,2.04999083 C0.802352137,2.41672848 0.052454902,3.44202167 0.052454902,4.59118857 L0.052454902,37.9756304 C0.052454902,39.7697744 1.81794751,41.0654458 3.5871083,40.5664968 C10.0989748,38.7297117 16.2787491,38.5883289 22.8148255,40.1393707 L22.8148255,40.1394898 C22.8148255,41.1488223 23.6547153,41.9669844 24.6908525,41.9669844 L32.2881319,41.9669844 C33.3242691,41.9669844 34.1641589,41.1488223 34.1641589,40.1394898 C40.7004798,38.588448 46.8803765,38.7297117 53.3921207,40.5664968 C55.1611592,41.0654458 56.9265295,39.7698935 56.9265295,37.9758687 L56.9265295,4.59106946 C56.9265295,3.43463689 56.164405,2.41208322 55.0391312,2.04355892 Z" id="Path" fill="url(#linearGradient-2)"></path>
                    <path d="M55.0391312,2.04355892 C46.2825862,-0.823879295 37.194805,-0.601383051 28.4894922,2.71152409 C19.7779435,-0.603646128 10.6831928,-0.824355733 1.92028959,2.04999083 C0.802352137,2.41672848 0.052454902,3.44202167 0.052454902,4.59118857 L0.052454902,37.9756304 C0.052454902,39.7697744 1.81794751,41.0654458 3.5871083,40.5664968 C10.0989748,38.7297117 16.2787491,38.5883289 22.8148255,40.1393707 L22.8148255,40.1394898 C22.8148255,41.1488223 23.6547153,41.9669844 24.6908525,41.9669844 L32.2881319,41.9669844 C33.3242691,41.9669844 34.1641589,41.1488223 34.1641589,40.1394898 C40.7004798,38.588448 46.8803765,38.7297117 53.3921207,40.5664968 C55.1611592,41.0654458 56.9265295,39.7698935 56.9265295,37.9758687 L56.9265295,4.59106946 C56.9265295,3.43463689 56.164405,2.41208322 55.0391312,2.04355892 Z" id="Path" fill="url(#linearGradient-3)"></path>
                    <path d="M28.4894922,26.4394146 L28.4894922,41.9668653 L32.2881319,41.9668653 C33.3242691,41.9668653 34.1641589,41.1487032 34.1641589,40.1393707 C40.7004798,38.5883289 46.8803765,38.7294734 53.3919984,40.5663777 C55.1610369,41.0653267 56.9264072,39.7697744 56.9264072,37.9757496 L56.9264072,26.4394146 L28.4894922,26.4394146 L28.4894922,26.4394146 Z" id="Path" fill="url(#linearGradient-4)"></path>
                </g>
                <g id="Group" transform="translate(3.000000, 0.000000)">
                    <path d="M1.93985319,1.99536257 C0.814579387,2.35715651 0.052454902,3.36103529 0.052454902,4.49634795 L0.052454902,37.2710902 C0.052454902,39.0256856 1.80889935,40.3077504 3.5710906,39.8189661 C11.8211829,37.5309176 20.3238902,37.9121226 28.4894922,40.9630488 L28.4894922,2.6511287 C19.7844239,-0.601157932 10.6966427,-0.819824599 1.93985319,1.99536257 Z" id="Path" fill="url(#linearGradient-5)"></path>
                    <g transform="translate(3.423630, 2.806417)" id="Path">
                        <path d="M19.9906976,34.1963094 C13.9055622,33.1471772 7.94759015,33.1469433 1.86184334,34.1963094 C0.858719759,34.3865611 0.0513544495,33.7921854 0.0513544495,32.8256086 C0.0513544495,31.7143843 0.0513544495,31.1588307 0.0513544495,30.0476064 C0.0513544495,29.0810296 0.858719759,28.1083722 1.86184334,27.9181205 C7.94759015,26.8688713 13.9055622,26.8689882 19.9906976,27.9181205 C20.9938212,28.1083722 21.8011865,29.0810296 21.8011865,30.0476064 L21.8011865,32.8256086 C21.8011865,33.7921854 20.9938212,34.3866781 19.9906976,34.1963094 Z" fill="url(#linearGradient-6)"></path>
                        <path d="M19.9906976,24.3263743 C13.9055622,23.2772421 7.94759015,23.2771251 1.86184334,24.3263743 C0.858719759,24.516626 0.0513544495,23.9222503 0.0513544495,22.9556734 C0.0513544495,16.2760499 0.0513544495,9.59630945 0.0513544495,2.91668592 C0.0513544495,1.95010909 0.858719759,0.977451693 1.86184334,0.787083066 C7.94771242,-0.262283066 13.9055622,-0.262049198 19.9906976,0.7872 C20.9938212,0.977451693 21.8011865,1.95010909 21.8011865,2.91668592 L21.8011865,22.9556734 C21.8011865,23.9221333 20.9938212,24.516626 19.9906976,24.3263743 Z" fill="url(#linearGradient-7)"></path>
                    </g>
                    <path d="M55.0391312,1.99536257 C46.2825862,-0.819707665 37.194805,-0.601274866 28.4894922,2.6511287 L28.4894922,40.9630488 C36.655461,37.9122396 45.1581683,37.5308007 53.4080161,39.8189661 C55.1700851,40.3076335 56.9265295,39.0258025 56.9265295,37.2712071 L56.9265295,4.49634795 C56.9265295,3.36103529 56.164405,2.35703957 55.0391312,1.99536257 Z" id="Path" fill="url(#linearGradient-8)"></path>
                </g>
                <path d="M58.0571523,2.98800429 C50.5630413,0.61253643 42.8334374,0.366147658 35.2901133,2.24753244 C34.5315267,2.43671534 34,3.07998468 34,3.8198631 L34,17.6350809 L58.7784829,41 C59.5071138,40.5192096 60,39.7211758 60,38.7918771 L60,5.5264258 C60,4.37411916 59.2154852,3.35509507 58.0571523,2.98800429 Z" id="Path" fill="url(#linearGradient-9)"></path>
                <path d="M34,2.98564297 L34,16.0877097 C34,16.8989055 34.9704801,17.3050384 35.5380151,16.7315064 L38.4634555,13.7751537 C39.3120521,12.9175902 40.6879479,12.9175902 41.5365445,13.7751537 L44.4619849,16.7315064 C45.0295199,17.3050384 46,16.8989055 46,16.0877097 L46,1.52874813 C46,0.672373593 45.3039932,-0.0120840215 44.4566908,0 C41.3751311,0.0448649445 38.2954539,0.487973079 35.249424,1.32972398 C34.5115344,1.53374157 34,2.21249239 34,2.98564297 L34,2.98564297 Z" id="Path" fill="url(#linearGradient-10)"></path>
                <path d="M34,8 L34,16.1261703 C34,16.9031225 34.9704801,17.2922249 35.5380151,16.74279 L38.4634555,13.9112361 C39.3120521,13.0898736 40.6879479,13.0898736 41.5365445,13.9112361 L44.4619849,16.74279 C45.0295199,17.292111 46,16.9030086 46,16.1261703 L46,8 L34,8 Z" id="Path" fill="url(#linearGradient-11)"></path>
            </g>
        </g>
    </g>
</svg>